<svg xmlns="http://www.w3.org/2000/svg" viewBox="0 0 512 512" width="512" height="512">
  <rect width="512" height="512" rx="100" fill="#040b11"/>
  <path d="M256 80c-97.2 0-176 78.8-176 176s78.8 176 176 176 176-78.8 176-176S353.2 80 256 80zm47.2 245.3c-24.1 24.1-57.2 34.7-88.4 29.3-5.4-.9-8.4-6.9-6-11.8l38.2-76.3-52.6-10.5c-5.3-1.1-7.8-7.3-4.8-11.7l86-129c3.9-5.9 12.8-3.9 13.9 3.2 8.7 54.8-5.3 111.3-41.5 151.7l60.2 12c5.4 1.1 7.6 7.4 4.5 11.8l-10.6 11.3z" fill="url(#grad)"/>
  <defs>
    <linearGradient id="grad" x1="0%" y1="0%" x2="100%" y2="100%">
      <stop offset="0%" stop-color="#10b981"/>
      <stop offset="100%" stop-color="#f59e0b"/>
    </linearGradient>
  </defs>
</svg>
